<svg width="64" height="64" viewBox="0 0 17 17" fill="none" xmlns="http://www.w3.org/2000/svg">
<path d="M5.03027 6.41675H11.6969" stroke="#8b82f6" stroke-width="1.3" stroke-linecap="round" stroke-linejoin="round"/>
<path d="M4.19727 9.75H5.0306" stroke="#8b82f6" stroke-width="1.3" stroke-linecap="round" stroke-linejoin="round"/>
<path d="M11.6973 9.75H12.5306" stroke="#8b82f6" stroke-width="1.3" stroke-linecap="round" stroke-linejoin="round"/>
<path d="M0.86377 13.0834V7.59216C0.86377 7.3665 0.90962 7.14308 0.998528 6.93566L2.93085 2.42688C3.19349 1.81407 3.79605 1.41675 4.46276 1.41675H12.2648C12.9315 1.41675 13.534 1.81407 13.7967 2.42688L15.729 6.93566C15.8179 7.14308 15.8638 7.3665 15.8638 7.59216V13.0834M0.86377 13.0834V15.0834C0.86377 15.3596 1.08763 15.5834 1.36377 15.5834H3.6971C3.97324 15.5834 4.1971 15.3596 4.1971 15.0834V13.0834M0.86377 13.0834H4.1971M15.8638 13.0834V15.0834C15.8638 15.3596 15.6399 15.5834 15.3638 15.5834H13.0304C12.7543 15.5834 12.5304 15.3596 12.5304 15.0834V13.0834M15.8638 13.0834H12.5304M4.1971 13.0834H12.5304" stroke="#8b82f6" stroke-width="1.3"/>
</svg>
